<?xml version="1.0" encoding="UTF-8" standalone="no"?>
<svg width="100px" height="72px" viewBox="0 0 100 72" version="1.1" xmlns="http://www.w3.org/2000/svg" xmlns:xlink="http://www.w3.org/1999/xlink">
    <!-- Generator: Sketch 43.1 (39012) - http://www.bohemiancoding.com/sketch -->
    <title>Group 5 Copy</title>
    <desc>Created with Sketch.</desc>
    <defs>
        <rect id="path-1" x="39" y="6" width="55" height="6"></rect>
    </defs>
    <g id="Page-1" stroke="none" stroke-width="1" fill="none" fill-rule="evenodd">
        <g id="Artboard-Copy" transform="translate(-1015.000000, -447.000000)">
            <g id="Group-5-Copy" transform="translate(1015.000000, 447.000000)">
                <g id="Group-3">
                    <rect id="Rectangle-2" fill="#FFFFFF" x="33" y="0" width="67" height="40"></rect>
                    <rect id="Rectangle-2-Copy-8" fill="#333333" x="0" y="0" width="28" height="56"></rect>
                    <g id="Group-4-Copy" transform="translate(6.000000, 6.000000)" fill="#616161">
                        <rect id="Rectangle-2-Copy-3" x="0" y="0" width="16" height="4"></rect>
                        <rect id="Rectangle-2-Copy-9" x="0" y="8" width="16" height="4"></rect>
                        <rect id="Rectangle-2-Copy-10" x="0" y="16" width="16" height="4"></rect>
                        <rect id="Rectangle-2-Copy-11" x="0" y="24" width="16" height="4"></rect>
                        <rect id="Rectangle-2-Copy-12" x="0" y="32" width="16" height="4"></rect>
                        <rect id="Rectangle-2-Copy-13" x="0" y="40" width="16" height="4"></rect>
                    </g>
                    <g id="Rectangle-3">
                        <use fill="#E5E5E5" fill-rule="evenodd" xlink:href="#path-1"></use>
                        <rect stroke="#FF0000" stroke-width="1" x="39.5" y="6.5" width="54" height="5"></rect>
                    </g>
                    <rect id="Rectangle-3-Copy" fill="#E5E5E5" x="39" y="17" width="55" height="6"></rect>
                    <rect id="Rectangle-3-Copy-2" fill="#FFDE00" x="60" y="28" width="34" height="6" rx="1"></rect>
                </g>
                <rect id="Rectangle-2-Copy-2" fill="#333333" x="33" y="45" width="67" height="27"></rect>
                <rect id="Rectangle-12" fill="#616161" x="39" y="51" width="16" height="15"></rect>
                <rect id="Rectangle-12-Copy" fill="#616161" x="60" y="51" width="34" height="15"></rect>
            </g>
        </g>
    </g>
</svg>