<?xml version="1.0" encoding="UTF-8" standalone="no"?>
<svg width="80px" height="64px" viewBox="0 0 80 64" version="1.1" xmlns="http://www.w3.org/2000/svg" xmlns:xlink="http://www.w3.org/1999/xlink">
    <!-- Generator: Sketch 43.1 (39012) - http://www.bohemiancoding.com/sketch -->
    <title>Group 6</title>
    <desc>Created with Sketch.</desc>
    <defs></defs>
    <g id="Page-1" stroke="none" stroke-width="1" fill="none" fill-rule="evenodd">
        <g id="Artboard-Copy" transform="translate(-461.000000, -451.000000)">
            <g id="Group-6" transform="translate(461.000000, 451.000000)">
                <g id="Group-2">
                    <path d="M10.8009036,34.1454327 L10.8009036,40.8378906 C11.7316475,40.7049272 12.4555485,40.3466701 12.9726284,39.7631085 C13.4897083,39.1795469 13.7482444,38.437179 13.7482444,37.5359826 C13.7482444,36.6200124 13.4934017,35.8702578 12.9837086,35.2866962 C12.4740156,34.7031346 11.7464212,34.3227172 10.8009036,34.1454327 Z M7.67627922,27.7410607 L7.67627922,21.4696514 C6.76030909,21.5878411 6.06964843,21.8943911 5.60427652,22.3893104 C5.1389046,22.8842297 4.90622213,23.5601169 4.90622213,24.4169922 C4.90622213,25.2590938 5.1389046,25.9608345 5.60427652,26.5222356 C6.06964843,27.0836366 6.76030909,27.4899076 7.67627922,27.7410607 Z M11.4162628,52 L8.37910609,52 L8.35756597,45.5164243 C7.10823285,45.4733439 5.80147873,45.2866647 4.4372644,44.9563813 C3.07305008,44.6260978 1.65141648,44.1522199 0.172320948,43.5347334 L0.172320948,37.8912224 C1.65141648,38.7671916 3.08382003,39.4421086 4.46957458,39.9159935 C5.85532913,40.3898785 7.15849327,40.6339974 8.37910609,40.6483576 L8.37910609,33.5616586 C5.55015638,33.0016127 3.44642585,32.0359071 2.06785137,30.6645127 C0.689276898,29.2931183 0,27.4801764 0,25.2256327 C0,22.8274876 0.732356704,20.9176162 2.19709208,19.4959612 C3.66182746,18.0743063 5.72247819,17.2773299 8.37910609,17.1050081 L8.37910609,12 L11.4162628,12 L11.4378029,17.1050081 C12.4573736,17.1624487 13.5164188,17.2916881 14.6149704,17.4927302 C15.7135219,17.6937723 16.8371869,17.9737911 17.9859989,18.3327948 L17.9859989,23.8470652 C17.0956696,23.2726591 16.104834,22.8131412 15.0134626,22.4684976 C13.9220911,22.123854 12.7230365,21.9084549 11.4162628,21.822294 L11.4162628,28.4351104 C14.2452125,28.8802751 16.3812529,29.8459807 17.824448,31.3322563 C19.2676432,32.8185319 19.9892299,34.796613 19.9892299,37.266559 C19.9892299,39.6216237 19.2102034,41.553035 17.6521271,43.0608508 C16.0940507,44.5686667 14.02263,45.387183 11.4378029,45.5164243 L11.4162628,52 Z" id="$x:" fill="#FFFFFF"></path>
                    <polygon id="Path" fill="#FFFFFF" points="47.2653606 21 38.8726625 32.9642857 48 46 40.3864648 46 35.4888691 37.5848214 30.6135352 46 23 46 32.2163847 32.9642857 23.7346394 21 31.3481745 21 35.4888691 28.4553571 39.6518255 21"></polygon>
                    <path d="M57,37 L64,37 L64,45 L57,45 L57,37 Z M57,22 L64,22 L64,30 L57,30 L57,22 Z" id="Combined-Shape" fill="#FFDE00"></path>
                    <rect id="Rectangle-5" fill="#FF0000" x="74" y="0" width="6" height="64"></rect>
                </g>
            </g>
        </g>
    </g>
</svg>