<?xml version="1.0" encoding="UTF-8" standalone="no"?>
<svg width="94px" height="68px" viewBox="0 0 94 68" version="1.1" xmlns="http://www.w3.org/2000/svg" xmlns:xlink="http://www.w3.org/1999/xlink">
    <!-- Generator: Sketch 43.1 (39012) - http://www.bohemiancoding.com/sketch -->
    <title>Group 5</title>
    <desc>Created with Sketch.</desc>
    <defs>
        <rect id="path-1" x="13" y="0" width="68" height="68"></rect>
        <mask id="mask-2" maskContentUnits="userSpaceOnUse" maskUnits="objectBoundingBox" x="0" y="0" width="68" height="68" fill="white">
            <use xlink:href="#path-1"></use>
        </mask>
    </defs>
    <g id="Page-1" stroke="none" stroke-width="1" fill="none" fill-rule="evenodd">
        <g id="Artboard-Copy" transform="translate(-1300.000000, -451.000000)">
            <g id="Group-5" transform="translate(1300.000000, 451.000000)">
                <use id="Rectangle-18" stroke="#333333" mask="url(#mask-2)" stroke-width="4" stroke-dasharray="4" xlink:href="#path-1"></use>
                <path d="M66,5 L66,63 L27,63 L27,5 L66,5 Z M34,12 L34,48 L59,48 L59,12 L34,12 Z M43,52 L43,59 L50,59 L50,52 L43,52 Z" id="phone-2" fill="#FFFFFF" fill-rule="nonzero"></path>
                <rect id="Rectangle-19" fill="#FFDE00" x="59" y="5" width="7" height="7"></rect>
                <rect id="Rectangle-19-Copy" fill="#FF0000" x="34" y="41" width="7" height="7"></rect>
                <circle id="Oval-5" fill="#FFDE00" cx="90.5" cy="8.5" r="3.5"></circle>
                <circle id="Oval-5-Copy" fill="#FF0000" cx="3.5" cy="44.5" r="3.5"></circle>
                <rect id="Rectangle-20" fill="#FF0000" x="6" y="44" width="28" height="1"></rect>
                <rect id="Rectangle-20-Copy" fill="#FFDE00" x="65" y="8" width="25" height="1"></rect>
            </g>
        </g>
    </g>
</svg>