<?xml version="1.0" encoding="UTF-8" standalone="no"?>
<svg width="100px" height="71px" viewBox="0 0 100 71" version="1.1" xmlns="http://www.w3.org/2000/svg" xmlns:xlink="http://www.w3.org/1999/xlink">
    <!-- Generator: Sketch 43.1 (39012) - http://www.bohemiancoding.com/sketch -->
    <title>Group</title>
    <desc>Created with Sketch.</desc>
    <defs></defs>
    <g id="Page-1" stroke="none" stroke-width="1" fill="none" fill-rule="evenodd">
        <g id="Artboard-Copy" transform="translate(-733.000000, -447.000000)">
            <g id="Group" transform="translate(733.000000, 447.000000)">
                <g id="desktop">
                    <rect id="Combined-Shape" fill="#FFFFFF" x="0" y="0" width="100" height="71" rx="3"></rect>
                    <rect id="Rectangle-4" fill="#333333" x="2" y="9" width="96" height="60" rx="1"></rect>
                    <g id="Group-8" transform="translate(5.000000, 12.000000)">
                        <rect id="Rectangle-9" fill="#616161" x="0" y="0" width="90" height="6"></rect>
                        <path d="M5,10 L17,10 L17,12 L5,12 L5,10 Z M5,18 L17,18 L17,20 L5,20 L5,18 Z M5,14 L17,14 L17,16 L5,16 L5,14 Z M5,22 L17,22 L17,24 L5,24 L5,22 Z M5,26 L17,26 L17,28 L5,28 L5,26 Z M5,30 L17,30 L17,32 L5,32 L5,30 Z M5,34 L17,34 L17,36 L5,36 L5,34 Z" id="Combined-Shape" fill="#616161"></path>
                        <rect id="Rectangle-11-Copy" fill="#616161" x="20" y="9" width="41" height="38"></rect>
                        <rect id="Rectangle-11-Copy-2" fill="#FFCC00" x="64" y="9" width="19" height="28"></rect>
                        <rect id="Rectangle-10" fill="#FF0000" x="5" y="1" width="3" height="4"></rect>
                    </g>
                </g>
            </g>
        </g>
    </g>
</svg>