<svg xmlns="http://www.w3.org/2000/svg" width="78" height="78" viewBox="0 0 78 78">
  <g fill="none" fill-rule="evenodd" transform="translate(16 9)">
    <path fill="#FFCC00" d="M33.8,23.9333333 L33.8,0.933333333 C33.8,0.933333333 7.00871289,18.1772579 5.06065625,19.4244181 C3.11259961,20.6715783 0.8,22.6576698 0.8,26.9333333 L0.8,55.9333333 C0.8,57.9333333 2.8,59.9333333 4.8,59.9333333 L46.8,59.9333333 L46.8,23.9333333 L33.8,23.9333333 Z"/>
    <path fill="#222222" d="M27.0575453,23.9753381 C27.0575453,26.212933 25.1675402,28.9647058 22.934658,29.9964113 C20.7017759,31.0297916 18.8117708,29.9964113 18.8117708,27.7604912 C18.8117708,25.3520619 20.7017759,22.7711235 22.934658,21.739418 C25.1675402,20.7077126 27.0575453,21.739418 27.0575453,23.9753381 Z" transform="rotate(1 22.935 25.868)"/>
    <polygon fill="#F0B200" points="33.8 23.933 40.267 23.933 40.3 46.933 6.483 57.257 33.8 38.933"/>
  </g>
</svg>
