<svg xmlns="http://www.w3.org/2000/svg" width="160" height="160" viewBox="0 0 160 160">
  <g fill="none" fill-rule="evenodd">
    <rect width="116.364" height="104.727" x="21.818" y="27.636" fill="#FFDB4D"/>
    <g fill="#000000" transform="translate(61 55)">
      <rect width="39" height="9"/>
      <rect width="11" height="41" x="14" y="9"/>
    </g>
    <path fill="#FF0000" d="M21.8181818,53.3372784 C9.39093301,50.9576639 0,40.0300624 0,26.9090909 C0,12.0476104 12.0476104,0 26.9090909,0 C41.7705714,0 53.8181818,12.0476104 53.8181818,26.9090909 C53.8181818,40.0300624 44.4272488,50.9576639 32,53.3372784 L32,132.363636 L21.8181818,132.363636 L21.8181818,53.3372784 Z"/>
    <path fill="#FF0000" d="M128,80.973642 C115.572751,78.5940276 106.181818,67.666426 106.181818,54.5454545 C106.181818,39.683974 118.229429,27.6363636 133.090909,27.6363636 C147.95239,27.6363636 160,39.683974 160,54.5454545 C160,67.666426 150.609067,78.5940276 138.181818,80.973642 L138.181818,160 L128,160 L128,80.973642 Z" transform="matrix(1 0 0 -1 0 187.636)"/>
  </g>
</svg>
