<?xml version="1.0" encoding="UTF-8" standalone="no"?>
<svg width="78px" height="91px" viewBox="0 0 78 91" version="1.1" xmlns="http://www.w3.org/2000/svg" xmlns:xlink="http://www.w3.org/1999/xlink">
    <!-- Generator: Sketch 43.1 (39012) - http://www.bohemiancoding.com/sketch -->
    <title>vector</title>
    <desc>Created with Sketch.</desc>
    <defs></defs>
    <g id="Page-1" stroke="none" stroke-width="1" fill="none" fill-rule="evenodd">
        <g id="Artboard-Copy" transform="translate(-744.000000, -719.000000)">
            <g id="vector" transform="translate(744.000000, 719.000000)">
                <path d="M40,40 C43.0455508,44.5814484 52,58.7646547 52,67.1494524 C52,74.4423387 45.0666667,81 45.0666667,81 L32.9333333,81 C32.9333333,81 26,74.4423387 26,67.1494524 C26,58.7646547 34.9544492,44.5814484 38,40 L38,63 L40,63 L40,40 Z M39,68.9969871 C40.1045695,68.9969871 41,68.102231 41,66.9984935 C41,65.894756 40.1045695,65 39,65 C37.8954305,65 37,65.894756 37,66.9984935 C37,68.102231 37.8954305,68.9969871 39,68.9969871 Z" id="Combined-Shape-Copy-2" fill="#616161"></path>
                <polygon id="Rectangle-17" fill="#333333" points="28 83 50 83 51 91 27 91"></polygon>
                <rect id="Rectangle-14-Copy-2" stroke="#FFFFFF" stroke-width="2" x="35" y="1" width="8" height="8"></rect>
                <path d="M73,39 C73,20.2223185 57.7776815,5 39,5 C20.2223185,5 5,20.2223185 5,39" id="Oval-2" stroke="#FFFFFF" stroke-width="2"></path>
                <path d="M17.8292943,4 L60.1707057,4 C60.5825421,2.83480763 61.6937812,2 63,2 C64.6568542,2 66,3.34314575 66,5 C66,6.65685425 64.6568542,8 63,8 C61.6937812,8 60.5825421,7.16519237 60.1707057,6 L17.8292943,6 C17.4174579,7.16519237 16.3062188,8 15,8 C13.3431458,8 12,6.65685425 12,5 C12,3.34314575 13.3431458,2 15,2 C16.3062188,2 17.4174579,2.83480763 17.8292943,4 Z" id="Combined-Shape" fill="#FFFFFF"></path>
                <rect id="Rectangle-14" stroke="#FFCC00" stroke-width="2" x="1" y="35" width="8" height="8"></rect>
                <rect id="Rectangle-14-Copy" stroke="#FF0000" stroke-width="2" x="69" y="35" width="8" height="8"></rect>
            </g>
        </g>
    </g>
</svg>